<?xml version="1.0" encoding="utf-8"?>
<!-- Generator: Adobe Illustrator 23.0.3, SVG Export Plug-In . SVG Version: 6.00 Build 0)  -->
<svg version="1.1" id="Calque_1" xmlns="http://www.w3.org/2000/svg" xmlns:xlink="http://www.w3.org/1999/xlink" x="0px" y="0px"
	 viewBox="0 0 320 220" style="enable-background:new 0 0 320 220;" xml:space="preserve">
<g>
	<polygon style="fill-rule:evenodd;clip-rule:evenodd;fill:#18095A;" points="28.3,209.5 17.5,209.5 17.5,220 28.3,220 	"/>
	<polygon style="fill-rule:evenodd;clip-rule:evenodd;fill:#040214;" points="10,209.5 17.5,209.5 17.5,220 10,220 	"/>
	<polygon style="fill-rule:evenodd;clip-rule:evenodd;fill:#18095A;" points="53.1,181 38.6,181 38.6,220 53.1,220 	"/>
	<polygon style="fill-rule:evenodd;clip-rule:evenodd;fill:#040214;" points="31.6,181 38.6,181 38.6,220 31.6,220 	"/>
	<polygon style="fill-rule:evenodd;clip-rule:evenodd;fill:#010107;" points="87.1,140.2 56.4,149.5 56.4,220 87.1,220 	"/>
	<polygon style="fill-rule:evenodd;clip-rule:evenodd;fill:#09071B;" points="143.6,178.5 128.5,178.5 128.5,220 143.6,220 
		148.3,220 149.5,220 149.5,165.6 143.6,165.6 	"/>
	<polygon style="fill-rule:evenodd;clip-rule:evenodd;fill:#1D0640;" points="111.3,86.8 133.8,86.8 133.8,220 111.3,220 	"/>
	<polygon style="fill-rule:evenodd;clip-rule:evenodd;fill:#010107;" points="92.9,113.7 104,113.7 104,220 92.9,220 	"/>
	<polygon style="fill-rule:evenodd;clip-rule:evenodd;fill:#4C104B;" points="118.5,126.4 104,113.7 104,220 118.5,220 	"/>
	<polygon style="fill-rule:evenodd;clip-rule:evenodd;fill:#040214;" points="78.3,208.6 98.3,208.6 98.3,220 78.3,220 	"/>
	<polygon style="fill-rule:evenodd;clip-rule:evenodd;fill:#18095A;" points="90.2,188.9 75.7,188.9 75.7,220 90.2,220 	"/>
	<polygon style="fill-rule:evenodd;clip-rule:evenodd;fill:#040214;" points="68.7,188.9 75.7,188.9 75.7,220 68.7,220 	"/>
	<polygon style="fill-rule:evenodd;clip-rule:evenodd;fill:#4C104B;" points="139.2,92.7 133.8,86.8 133.8,220 139.2,220 	"/>
	<polygon style="fill-rule:evenodd;clip-rule:evenodd;fill:#09071B;" points="209.5,93.7 207,93.7 202.4,220 209.5,220 	"/>
	<polygon style="fill-rule:evenodd;clip-rule:evenodd;fill:#09071B;" points="164.9,220 187.8,220 187.8,197.8 164.9,197.8 
		164.9,189.3 159.1,183.5 159.1,220 162.7,220 	"/>
	<polygon style="fill-rule:evenodd;clip-rule:evenodd;fill:#09071B;" points="216.1,189.1 201.9,189.1 201.9,220 216.1,220 
		219.3,220 222.2,220 222.2,177 219.2,177 216.1,182.6 	"/>
	<polygon style="fill-rule:evenodd;clip-rule:evenodd;fill:#010002;" points="213.6,149.2 186.5,140.9 186.5,220 213.6,220 	"/>
	<polygon style="fill-rule:evenodd;clip-rule:evenodd;fill:#860E5F;" points="183.6,63.9 175.4,63.9 167.1,220 183.6,220 	"/>
	<polygon style="fill-rule:evenodd;clip-rule:evenodd;fill:#1D071D;" points="183.6,63.9 191.9,63.9 200.2,220 183.6,220 	"/>
	<polygon style="fill-rule:evenodd;clip-rule:evenodd;fill:#1A082E;" points="257.7,113.3 236.7,113.3 236.7,220 257.7,220 	"/>
	<polygon style="fill-rule:evenodd;clip-rule:evenodd;fill:#86164D;" points="230.1,125.4 236.7,113.3 236.7,220 230.1,220 	"/>
	<polygon style="fill-rule:evenodd;clip-rule:evenodd;fill:#010003;" points="257.7,113.3 264.7,125.5 264.7,220 257.7,220 	"/>
	<polygon style="fill-rule:evenodd;clip-rule:evenodd;fill:#040214;" points="203.5,207.3 190.9,207.3 190.9,220 203.5,220 	"/>
	<polygon style="fill-rule:evenodd;clip-rule:evenodd;fill:#18095A;" points="203.5,207.3 249.4,207.3 249.4,220 203.5,220 	"/>
	<polygon style="fill-rule:evenodd;clip-rule:evenodd;fill:#040214;" points="252.7,190.9 248.3,190.9 244,196.6 244,220 252.7,220 
			"/>
	<polygon style="fill-rule:evenodd;clip-rule:evenodd;fill:#18095A;" points="265.7,220 275.3,220 275.3,210.7 265.7,210.7 
		265.7,190.9 252.7,190.9 252.7,220 258.3,220 	"/>
	<polygon style="fill-rule:evenodd;clip-rule:evenodd;fill:#09071B;" points="280.6,188.5 272.6,188.5 272.6,220 280.6,220 	"/>
	<polygon style="fill-rule:evenodd;clip-rule:evenodd;fill:#0E0414;" points="278.8,148 287.4,148 287.4,220 278.8,220 	"/>
	<polygon style="fill-rule:evenodd;clip-rule:evenodd;fill:#070216;" points="297.6,155.9 292.1,148 287.4,148 287.4,220 297.6,220 
			"/>
	<polygon style="fill-rule:evenodd;clip-rule:evenodd;fill:#09071B;" points="307.1,206.3 302.7,208.3 302.7,220 307.1,220 	"/>
	<polygon style="fill-rule:evenodd;clip-rule:evenodd;fill:#040214;" points="295.3,209.5 285.2,209.5 285.2,220 295.3,220 	"/>
	<polygon style="fill-rule:evenodd;clip-rule:evenodd;fill:#18095A;" points="295.3,209.5 310,212.9 310,220 295.3,220 	"/>
	<polygon style="fill-rule:evenodd;clip-rule:evenodd;fill:#C41178;" points="199.2,202.5 168,202.5 168,203.2 199.3,203.2 	"/>
	<polygon style="fill-rule:evenodd;clip-rule:evenodd;fill:#C41178;" points="199.1,199.6 168.2,199.6 168.2,200.3 199.1,200.3 	"/>
	<polygon style="fill-rule:evenodd;clip-rule:evenodd;fill:#C41178;" points="198.9,196.8 168.3,196.8 168.3,197.5 199,197.5 	"/>
	<polygon style="fill-rule:evenodd;clip-rule:evenodd;fill:#C41178;" points="198.8,194 168.5,194 168.5,194.6 198.8,194.6 	"/>
	<polygon style="fill-rule:evenodd;clip-rule:evenodd;fill:#C41178;" points="198.6,191.1 168.7,191.1 168.6,191.8 198.7,191.8 	"/>
	<polygon style="fill-rule:evenodd;clip-rule:evenodd;fill:#C41178;" points="198.5,188.3 168.8,188.3 168.8,189 198.5,189 	"/>
	<polygon style="fill-rule:evenodd;clip-rule:evenodd;fill:#C41178;" points="198.3,185.4 169,185.4 168.9,186.1 198.4,186.1 	"/>
	<polygon style="fill-rule:evenodd;clip-rule:evenodd;fill:#C41178;" points="198.2,182.6 169.1,182.6 169.1,183.2 198.2,183.2 	"/>
	<polygon style="fill-rule:evenodd;clip-rule:evenodd;fill:#C41178;" points="198,179.8 169.3,179.8 169.2,180.5 198.1,180.5 	"/>
	<polygon style="fill-rule:evenodd;clip-rule:evenodd;fill:#C41178;" points="197.9,176.9 169.4,176.9 169.4,177.6 197.9,177.6 	"/>
	<polygon style="fill-rule:evenodd;clip-rule:evenodd;fill:#C41178;" points="197.7,174.1 169.6,174.1 169.5,174.8 197.8,174.8 	"/>
	<polygon style="fill-rule:evenodd;clip-rule:evenodd;fill:#C41178;" points="197.6,171.2 169.7,171.2 169.7,171.9 197.6,171.9 	"/>
	<polygon style="fill-rule:evenodd;clip-rule:evenodd;fill:#C41178;" points="197.4,168.4 169.9,168.4 169.8,169 197.5,169 	"/>
	<polygon style="fill-rule:evenodd;clip-rule:evenodd;fill:#C41178;" points="197.3,165.6 170,165.6 170,166.3 197.3,166.3 	"/>
	<polygon style="fill-rule:evenodd;clip-rule:evenodd;fill:#C41178;" points="197.1,162.7 170.2,162.7 170.1,163.4 197.2,163.4 	"/>
	<polygon style="fill-rule:evenodd;clip-rule:evenodd;fill:#C41178;" points="197,159.9 170.3,159.9 170.3,160.5 197,160.5 	"/>
	<polygon style="fill-rule:evenodd;clip-rule:evenodd;fill:#C41178;" points="196.8,157 170.5,157 170.4,157.7 196.9,157.7 	"/>
	<polygon style="fill-rule:evenodd;clip-rule:evenodd;fill:#C41178;" points="196.7,154.2 170.6,154.2 170.6,154.8 196.7,154.8 	"/>
	<polygon style="fill-rule:evenodd;clip-rule:evenodd;fill:#C41178;" points="196.5,151.4 170.8,151.4 170.7,152.1 196.6,152.1 	"/>
	<polygon style="fill-rule:evenodd;clip-rule:evenodd;fill:#C41178;" points="196.4,148.5 170.9,148.5 170.9,149.2 196.4,149.2 	"/>
	<polygon style="fill-rule:evenodd;clip-rule:evenodd;fill:#C41178;" points="196.2,145.7 171.1,145.7 171,146.3 196.3,146.3 	"/>
	<polygon style="fill-rule:evenodd;clip-rule:evenodd;fill:#C41178;" points="196.1,142.8 171.2,142.8 171.2,143.5 196.1,143.5 	"/>
	<polygon style="fill-rule:evenodd;clip-rule:evenodd;fill:#C41178;" points="195.9,140 171.4,140 171.3,140.6 195.9,140.6 	"/>
	<polygon style="fill-rule:evenodd;clip-rule:evenodd;fill:#C41178;" points="195.8,137.2 171.5,137.2 171.5,137.9 195.8,137.9 	"/>
	<polygon style="fill-rule:evenodd;clip-rule:evenodd;fill:#C41178;" points="195.6,134.3 171.7,134.3 171.6,135 195.6,135 	"/>
	<polygon style="fill-rule:evenodd;clip-rule:evenodd;fill:#C41178;" points="195.5,131.5 171.8,131.5 171.8,132.1 195.5,132.1 	"/>
	<polygon style="fill-rule:evenodd;clip-rule:evenodd;fill:#C41178;" points="195.3,128.6 172,128.6 171.9,129.3 195.3,129.3 	"/>
	<polygon style="fill-rule:evenodd;clip-rule:evenodd;fill:#C41178;" points="195.2,125.8 172.1,125.8 172.1,126.5 195.2,126.5 	"/>
	<polygon style="fill-rule:evenodd;clip-rule:evenodd;fill:#C41178;" points="195,123 172.3,123 172.3,123.6 195,123.6 	"/>
	<polygon style="fill-rule:evenodd;clip-rule:evenodd;fill:#C41178;" points="194.9,120.1 172.4,120.1 172.4,120.8 194.9,120.8 	"/>
	<polygon style="fill-rule:evenodd;clip-rule:evenodd;fill:#C41178;" points="194.7,117.3 172.6,117.3 172.6,117.9 194.7,117.9 	"/>
	<polygon style="fill-rule:evenodd;clip-rule:evenodd;fill:#C41178;" points="194.5,114.5 172.7,114.5 172.7,115.1 194.6,115.1 	"/>
	<polygon style="fill-rule:evenodd;clip-rule:evenodd;fill:#C41178;" points="194.4,111.6 172.9,111.6 172.9,112.3 194.4,112.3 	"/>
	<polygon style="fill-rule:evenodd;clip-rule:evenodd;fill:#0A030E;" points="183.6,202.5 183.6,203.2 199.3,203.2 199.2,202.5 	"/>
	<polygon style="fill-rule:evenodd;clip-rule:evenodd;fill:#0A030E;" points="183.6,199.6 183.6,200.3 199.1,200.3 199.1,199.6 	"/>
	<polygon style="fill-rule:evenodd;clip-rule:evenodd;fill:#0A030E;" points="183.6,196.8 183.6,197.5 199,197.5 198.9,196.8 	"/>
	<polygon style="fill-rule:evenodd;clip-rule:evenodd;fill:#0A030E;" points="183.6,194 183.6,194.6 198.8,194.6 198.8,194 	"/>
	<polygon style="fill-rule:evenodd;clip-rule:evenodd;fill:#0A030E;" points="183.6,191.1 183.6,191.8 198.7,191.8 198.6,191.1 	"/>
	<polygon style="fill-rule:evenodd;clip-rule:evenodd;fill:#0A030E;" points="183.6,188.3 183.6,189 198.5,189 198.5,188.3 	"/>
	<polygon style="fill-rule:evenodd;clip-rule:evenodd;fill:#0A030E;" points="183.6,185.4 183.6,186.1 198.4,186.1 198.3,185.4 	"/>
	<polygon style="fill-rule:evenodd;clip-rule:evenodd;fill:#0A030E;" points="183.6,182.6 183.6,183.2 198.2,183.2 198.2,182.6 	"/>
	<polygon style="fill-rule:evenodd;clip-rule:evenodd;fill:#0A030E;" points="183.6,179.8 183.6,180.5 198.1,180.5 198,179.8 	"/>
	<polygon style="fill-rule:evenodd;clip-rule:evenodd;fill:#0A030E;" points="183.6,176.9 183.6,177.6 197.9,177.6 197.9,176.9 	"/>
	<polygon style="fill-rule:evenodd;clip-rule:evenodd;fill:#0A030E;" points="183.6,174.1 183.6,174.8 197.8,174.8 197.7,174.1 	"/>
	<polygon style="fill-rule:evenodd;clip-rule:evenodd;fill:#0A030E;" points="183.6,171.2 183.6,171.9 197.6,171.9 197.6,171.2 	"/>
	<polygon style="fill-rule:evenodd;clip-rule:evenodd;fill:#0A030E;" points="183.6,168.4 183.6,169 197.5,169 197.4,168.4 	"/>
	<polygon style="fill-rule:evenodd;clip-rule:evenodd;fill:#0A030E;" points="183.6,165.6 183.6,166.3 197.3,166.3 197.3,165.6 	"/>
	<polygon style="fill-rule:evenodd;clip-rule:evenodd;fill:#0A030E;" points="183.6,162.7 183.6,163.4 197.2,163.4 197.1,162.7 	"/>
	<polygon style="fill-rule:evenodd;clip-rule:evenodd;fill:#0A030E;" points="183.6,159.9 183.6,160.5 197,160.5 197,159.9 	"/>
	<polygon style="fill-rule:evenodd;clip-rule:evenodd;fill:#0A030E;" points="183.6,157 183.6,157.7 196.9,157.7 196.8,157 	"/>
	<polygon style="fill-rule:evenodd;clip-rule:evenodd;fill:#0A030E;" points="183.6,154.2 183.6,154.8 196.7,154.8 196.7,154.2 	"/>
	<polygon style="fill-rule:evenodd;clip-rule:evenodd;fill:#0A030E;" points="183.6,151.4 183.6,152.1 196.6,152.1 196.5,151.4 	"/>
	<polygon style="fill-rule:evenodd;clip-rule:evenodd;fill:#0A030E;" points="183.6,148.5 183.6,149.2 196.4,149.2 196.4,148.5 	"/>
	<polygon style="fill-rule:evenodd;clip-rule:evenodd;fill:#0A030E;" points="183.6,145.7 183.6,146.3 196.3,146.3 196.2,145.7 	"/>
	<polygon style="fill-rule:evenodd;clip-rule:evenodd;fill:#0A030E;" points="183.6,142.8 183.6,143.5 196.1,143.5 196.1,142.8 	"/>
	<polygon style="fill-rule:evenodd;clip-rule:evenodd;fill:#0A030E;" points="183.6,140 183.6,140.6 195.9,140.6 195.9,140 	"/>
	<polygon style="fill-rule:evenodd;clip-rule:evenodd;fill:#0A030E;" points="183.6,137.2 183.6,137.9 195.8,137.9 195.8,137.2 	"/>
	<polygon style="fill-rule:evenodd;clip-rule:evenodd;fill:#0A030E;" points="183.6,134.3 183.6,135 195.6,135 195.6,134.3 	"/>
	<polygon style="fill-rule:evenodd;clip-rule:evenodd;fill:#0A030E;" points="183.6,131.5 183.6,132.1 195.5,132.1 195.5,131.5 	"/>
	<polygon style="fill-rule:evenodd;clip-rule:evenodd;fill:#0A030E;" points="183.6,128.6 183.6,129.3 195.3,129.3 195.3,128.6 	"/>
	<polygon style="fill-rule:evenodd;clip-rule:evenodd;fill:#0A030E;" points="183.6,125.8 183.6,126.5 195.2,126.5 195.2,125.8 	"/>
	<polygon style="fill-rule:evenodd;clip-rule:evenodd;fill:#0A030E;" points="183.6,123 183.6,123.6 195,123.6 195,123 	"/>
	<polygon style="fill-rule:evenodd;clip-rule:evenodd;fill:#0A030E;" points="183.6,120.1 183.6,120.8 194.9,120.8 194.9,120.1 	"/>
	<polygon style="fill-rule:evenodd;clip-rule:evenodd;fill:#0A030E;" points="183.6,117.3 183.6,117.9 194.7,117.9 194.7,117.3 	"/>
	<polygon style="fill-rule:evenodd;clip-rule:evenodd;fill:#0A030E;" points="183.6,114.5 183.6,115.1 194.6,115.1 194.5,114.5 	"/>
	<polygon style="fill-rule:evenodd;clip-rule:evenodd;fill:#0A030E;" points="183.6,111.6 183.6,112.3 194.4,112.3 194.4,111.6 	"/>
	<polygon style="fill-rule:evenodd;clip-rule:evenodd;fill:#18095A;" points="169.8,202.1 145.5,207.3 145.5,220 169.8,220 	"/>
</g>
</svg>
