<?xml version="1.0" encoding="utf-8"?>
<!-- Generator: Adobe Illustrator 23.0.3, SVG Export Plug-In . SVG Version: 6.00 Build 0)  -->
<svg version="1.1" id="Objects" xmlns="http://www.w3.org/2000/svg" xmlns:xlink="http://www.w3.org/1999/xlink" x="0px" y="0px"
	 viewBox="0 0 370 130" style="enable-background:new 0 0 370 130;" xml:space="preserve">
<g>
	<polygon style="fill:#210933;" points="331.4,91.3 331.4,58.6 323.4,58.6 323.4,30.8 303.6,30.8 303.6,91.3 294.7,91.3 294.7,58.6 
		279,58.6 279,44.7 269.1,44.7 269.1,48.7 264.9,48.7 264.9,50.4 259.9,50.4 259.9,53.4 257.1,53.4 257.1,91.3 254,91.3 254,44.7 
		239.3,44.7 239.3,91.3 237.1,91.3 237.1,66.3 218.3,66.3 218.3,91.3 217.3,91.3 217.3,25.8 198.4,25.8 198.4,91.3 193.2,91.3 
		193.2,42.6 174.3,31.2 174.3,63.1 169.1,63.1 169.1,56.1 156.8,56.1 156.8,91.3 131.8,91.3 131.8,36.9 112.1,36.9 112.1,91.3 
		90.9,91.3 90.9,17.4 71.2,17.4 71.2,57.1 64.9,57.1 64.9,47.7 45.3,47.7 45.3,66.3 38.9,66.3 38.9,91.3 33.4,91.3 33.4,44.7 
		22.7,44.7 22.7,130 342.6,130 342.6,91.3 	"/>
	<path style="fill:#3D1224;" d="M349.8,59.6V105H348V74.3h-10.2V105h-16.4V56.4h-12.2V105h-2.6V46.4c0-3.3-2.5-5.9-5.7-6.1
		l-0.4-15.6L300,40.3c-3.2,0.2-5.8,2.9-5.8,6.1V105h-15.9V61.2h-12.2V105h-10V70.6h-14V105h-7.9V45.2h-5.3l-0.4-18.7L228,45.2h-7v12
		h-8.7l-4.3-7.5l-4.3,7.5h-0.9v-7.1h-12.3V105H188V80.3h-5.7v-7.5H173v-5.2h-10.1v8.6h-4.5V33.5h-3.3c-1-2.6-3.4-4.5-6.3-4.7
		l-0.5-20.2l-0.5,20.2c-3,0.2-5.5,2.1-6.5,4.7h-2.6V105h-2.4V61h-11.7v44h-3.8V61h-8.3l-8.1-14.1L96.5,61h-8v44h-1.9V82.5H73.8V105
		H71V87.2h-6.4V105h-5.8V74.7h-9.7V105h-0.6V85.1h-6.4v-2.7h-6.4V105h-1.9V71.1h-9V61h-6.5l-0.5-21.8L17.2,61H9.7v69H365V59.6H349.8
		z"/>
	<polygon style="fill:#081B42;" points="340.6,68.6 340.6,85.3 334.4,85.3 334.4,115.3 322.5,115.3 322.5,96.9 311,96.9 311,104.6 
		307.3,104.6 307.3,122.9 293,122.9 293,94.1 273.1,94.1 273.1,87.3 251.1,87.3 251.1,96 233.4,96 233.4,122.9 214.3,122.9 
		214.3,93 201.2,93 201.2,122.9 194.2,122.9 194.2,80.8 188.6,80.8 188.6,68.8 175.4,68.8 175.4,122.9 170.1,122.9 170.1,83.4 
		149.6,83.4 149.6,122.9 145.1,122.9 145.1,88.9 124.6,88.9 124.6,122.9 112.7,122.9 112.7,87.1 90,87.1 90,93.6 68.8,93.6 
		68.8,122.9 51.8,122.9 51.8,96.2 19.6,96.2 19.6,122.9 17,122.9 17,86 5,86 5,130 357.2,130 357.2,68.6 	"/>
	<polygon style="fill:#092E3A;" points="346.8,103 346.8,120.8 338.9,120.8 338.9,111.6 320.9,111.6 320.9,118.1 302.9,118.1 
		302.9,124 288.6,124 288.6,104.3 275.9,104.3 275.9,116.5 269.6,116.5 269.6,124 266,124 266,110.6 243.4,110.6 243.4,124.3 
		231.8,124.3 231.8,110.6 222.5,110.6 222.5,124 218.2,124 218.2,119.1 208.9,119.1 208.9,124 203.5,124 203.5,110.6 186.3,110.6 
		186.3,124 183.6,124 183.6,110.6 174.3,110.6 174.3,124 172.2,124 172.2,92.8 163,92.8 163,124.3 151.9,124.3 151.9,103 138.7,103 
		138.7,108.2 125.4,108.2 125.4,115.8 117.1,115.8 117.1,104.3 102.9,104.3 102.9,101.5 80.5,101.5 80.5,104.3 64.2,104.3 
		64.2,111.6 57.8,111.6 57.8,107.3 47.6,107.3 47.6,103 25.3,103 25.3,130 359.8,130 359.8,103 	"/>
</g>
</svg>
